<?xml version="1.0" standalone="no"?><!DOCTYPE svg PUBLIC "-//W3C//DTD SVG 1.1//EN" "http://www.w3.org/Graphics/SVG/1.1/DTD/svg11.dtd"><svg class="icon" width="200px" height="200.00px" viewBox="0 0 1024 1024" version="1.1" xmlns="http://www.w3.org/2000/svg"><path fill="#333333" d="M512 64C264.576 64 64 264.576 64 512c0 247.488 200.576 448 448 448 247.488 0 448-200.512 448-448C960 264.576 759.488 64 512 64zM744.64 571.648c-0.256 0-0.512-0.064-0.832-0.064l-0.064 0.064L631.616 571.648l0 171.456c0 24.768-20.032 44.736-44.864 44.736L444.544 787.84c-24.768 0-44.8-20.032-44.8-44.736L399.744 571.648 286.464 571.648l0.064-0.064C268.352 571.456 253.76 556.736 253.76 538.624 253.76 531.584 256 525.056 259.84 519.68l0-0.064 2.048-2.624 208.96-264.384 0 0c10.368-13.76 26.752-22.656 45.248-22.656 19.072 0 35.968 9.408 46.208 23.936l0 0 208.128 263.296-1.28-0.512 0 0.064c5.248 5.824 8.512 13.44 8.512 21.824C777.6 556.8 762.88 571.648 744.64 571.648z" /></svg>