<?xml version="1.0" standalone="no"?><!DOCTYPE svg PUBLIC "-//W3C//DTD SVG 1.1//EN" "http://www.w3.org/Graphics/SVG/1.1/DTD/svg11.dtd"><svg class="icon" width="200px" height="178.55px" viewBox="0 0 1147 1024" version="1.1" xmlns="http://www.w3.org/2000/svg"><path fill="#333333" d="M1017.201954 532.599722a66.588175 66.588175 0 0 1-62.213354 36.873486H852.435992v340.895094a113.631698 113.631698 0 0 1-113.631698 113.631698H284.277503a113.631698 113.631698 0 0 1-113.631698-113.631698v-340.895094H68.093197A66.588175 66.588175 0 0 1 5.879843 532.599722a53.861425 53.861425 0 0 1 14.601673-65.054147L463.929217 17.393604a73.860604 73.860604 0 0 1 95.223363 0l443.447701 450.095155a53.861425 53.861425 0 0 1 14.601673 65.110963z"  /></svg>