<?xml version="1.0" standalone="no"?><!DOCTYPE svg PUBLIC "-//W3C//DTD SVG 1.1//EN" "http://www.w3.org/Graphics/SVG/1.1/DTD/svg11.dtd"><svg class="icon" width="200px" height="200.00px" viewBox="0 0 1024 1024" version="1.1" xmlns="http://www.w3.org/2000/svg"><path fill="#333333" d="M409.6 793.6c-10.24 0-19.968-6.144-23.552-15.872L187.392 281.6H25.6c-14.336 0-25.6-11.264-25.6-25.6s11.264-25.6 25.6-25.6h196.608l211.456 527.872c5.12 13.312-1.024 28.16-14.336 33.28-3.584 1.536-6.656 2.048-9.728 2.048z"  /><path fill="#333333" d="M460.8 844.8c-42.496 0-76.8-34.304-76.8-76.8s34.304-76.8 76.8-76.8 76.8 34.304 76.8 76.8-34.304 76.8-76.8 76.8z m0-102.4c-14.336 0-25.6 11.264-25.6 25.6s11.264 25.6 25.6 25.6 25.6-11.264 25.6-25.6-11.264-25.6-25.6-25.6zM819.2 844.8c-42.496 0-76.8-34.304-76.8-76.8s34.304-76.8 76.8-76.8 76.8 34.304 76.8 76.8-34.304 76.8-76.8 76.8z m0-102.4c-14.336 0-25.6 11.264-25.6 25.6s11.264 25.6 25.6 25.6 25.6-11.264 25.6-25.6-11.264-25.6-25.6-25.6z"  /><path fill="#333333" d="M768 793.6h-256c-14.336 0-25.6-11.264-25.6-25.6s11.264-25.6 25.6-25.6h256c14.336 0 25.6 11.264 25.6 25.6s-11.264 25.6-25.6 25.6zM937.984 614.4H337.92c-14.336 0-25.6-11.264-25.6-25.6s11.264-25.6 25.6-25.6h560.128l57.344-230.4H358.4c-14.336 0-25.6-11.264-25.6-25.6s11.264-25.6 25.6-25.6h662.528l-82.944 332.8z"  /></svg>